<svg xmlns="http://www.w3.org/2000/svg"  viewBox="0 0 64 64" width="128px" height="128px"><radialGradient id="rHD1ILiTV300IR2rb_Cx~a" cx="31.766" cy="32.447" r="35.923" gradientTransform="matrix(1 0 0 -1 0 66)" gradientUnits="userSpaceOnUse"><stop offset="0" stop-color="#afeeff"/><stop offset=".193" stop-color="#bbf1ff"/><stop offset=".703" stop-color="#d7f8ff"/><stop offset="1" stop-color="#e1faff"/></radialGradient><path fill="url(#rHD1ILiTV300IR2rb_Cx~a)" d="M62.98,58.41C62.77,60.49,60.9,62,58.81,62H4c-2.34,0-4.22-2.03-3.98-4.41	C0.23,55.51,2.1,54,4.19,54H5c1.11,0,2-0.9,2-2c0-0.55-0.22-1.05-0.58-1.41C6.06,50.22,5.56,50,5,50c-1.65,0-3-1.35-3-3s1.35-3,3-3	h17V32H5c-2.34,0-4.22-2.03-3.98-4.41C1.23,25.51,3.1,24,5.19,24H8.5c1.93,0,3.5-1.57,3.5-3.5S10.43,17,8.5,17h-2	c-2.4,0-4.36-1.87-4.49-4.24C2,12.67,2,12.59,2,12.5c0-1.24,0.5-2.37,1.32-3.18C4.13,8.5,5.26,8,6.5,8h13.23	c0-0.01,0.01-0.01,0.01-0.02C20.46,7.86,21,7.25,21,6.5C21,5.67,20.33,5,19.5,5h-4c-1.47,0-2.64-1.26-2.49-2.76	C13.14,0.94,14.34,0,15.64,0H48.5c1.47,0,2.64,1.26,2.49,2.76C50.86,4.06,49.66,5,48.36,5H45.5C44.67,5,44,5.67,44,6.5	S44.67,8,45.5,8h14c1.47,0,2.64,1.26,2.49,2.76c-0.13,1.3-1.33,2.24-2.63,2.24H59c-1.1,0-2,0.9-2,2s0.9,2,2,2h0.81	c2.09,0,3.96,1.51,4.17,3.59C64.22,22.97,62.33,25,60,25H42v7h17c1.65,0,3,1.35,3,3s-1.35,3-3,3h-9c-1.38,0-2.5,1.12-2.5,2.5	S48.62,43,50,43h10.5c1.92,0,3.5,1.58,3.5,3.5S62.42,50,60.5,50H59c-1.1,0-2,0.9-2,2s0.9,2,2,2C61.33,54,63.22,56.03,62.98,58.41z"/><linearGradient id="rHD1ILiTV300IR2rb_Cx~b" x1="32" x2="32" y1="10" y2="85.83" gradientTransform="matrix(1 0 0 -1 0 66)" gradientUnits="userSpaceOnUse"><stop offset="0" stop-color="#feaa53"/><stop offset=".612" stop-color="#ffcd49"/><stop offset="1" stop-color="#ffde44"/></linearGradient><path fill="url(#rHD1ILiTV300IR2rb_Cx~b)" d="M55,20v26c0,5.5-4.5,10-10,10H19c-5.5,0-10-4.5-10-10V20c0-5.5,4.5-10,10-10h26	C50.5,10,55,14.5,55,20z"/><linearGradient id="rHD1ILiTV300IR2rb_Cx~c" x1="26.5" x2="26.5" y1="13.723" y2="58.411" gradientTransform="matrix(1 0 0 -1 0 66)" gradientUnits="userSpaceOnUse"><stop offset="0" stop-color="#febb75"/><stop offset=".612" stop-color="#ffd76d"/><stop offset="1" stop-color="#ffe569"/></linearGradient><path fill="url(#rHD1ILiTV300IR2rb_Cx~c)" d="M44,41l-29-3l-6-4.91V20c0-5.5,4.5-10,10-10h9.44L37,17L44,41z"/><path fill="#fff" d="M49.878,45.339c-0.009-0.517-0.064-1.033-0.156-1.54c-0.175-1.032-0.505-2.047-0.956-3.043	c-0.459-0.978-1.02-1.929-1.682-2.808c-0.064-0.091-0.129-0.181-0.202-0.272l0.046-0.154l0.193-1.096	c0.129-0.725,0.248-1.431,0.34-2.147c0.028-0.743,0.046-1.485,0.046-2.21c0.037-0.716-0.092-1.458-0.184-2.173l-0.147-1.069	c-0.055-0.353-0.184-0.697-0.267-1.051c-0.717-2.762-2.095-5.18-3.759-7.091c-0.864-0.951-1.765-1.802-2.739-2.545	c-0.974-0.761-1.948-1.376-3.088-1.983c-0.48-0.246-1.091-0.215-1.549,0.155c-0.566,0.457-0.623,1.299-0.217,1.899l0.057,0.084	c0.533,0.715,1.121,1.594,1.544,2.454c0.239,0.417,0.404,0.878,0.607,1.304c0.184,0.444,0.303,0.896,0.469,1.322	c0.57,1.757,0.698,3.505,0.432,5.072c-0.037,0.19-0.028,0.38-0.092,0.579l-0.175,0.562c-0.119,0.371-0.175,0.734-0.377,1.087	l-0.414,0.896l-0.003,0.005c-0.287-0.18-0.574-0.357-0.856-0.547c-1.734-1.116-3.406-2.358-5.016-3.692	c-1.618-1.325-3.17-2.75-4.644-4.257c-1.468-1.494-2.905-3.113-4.134-4.729l-0.045-0.06c-0.422-0.556-1.226-0.725-1.855-0.325	c-0.605,0.384-0.765,1.203-0.439,1.835c1.041,2.023,2.18,3.858,3.432,5.693c0.48,0.704,0.99,1.39,1.501,2.076	c-0.897-0.747-1.772-1.53-2.62-2.346c-1.634-1.58-3.225-3.318-4.577-5.076l-0.046-0.06c-0.428-0.558-1.24-0.718-1.866-0.308	c-0.602,0.394-0.748,1.219-0.409,1.847c1.181,2.184,2.488,4.157,3.943,6.114c1.472,1.964,3.091,3.84,4.861,5.613	c1.752,1.791,3.736,3.397,5.852,4.886c0.199,0.14,0.412,0.266,0.615,0.402c-0.002,0-0.004,0.001-0.006,0.002c0,0,0,0-0.009,0	c-0.588,0.199-1.25,0.344-1.976,0.435c-1.939,0.218-4.163,0.073-6.396-0.344c-2.252-0.38-4.604-0.996-6.791-1.793l-0.156-0.054	c-0.53-0.199-1.161-0.05-1.554,0.416c-0.476,0.565-0.352,1.426,0.194,1.926c1.892,1.732,3.866,3.244,6.065,4.623	c2.233,1.358,4.668,2.536,7.453,3.333c2.775,0.752,6.084,1.123,9.585,0.099c1.268-0.38,2.518-0.942,3.667-1.648	c0.003-0.002,0.005-0.003,0.008-0.005c0.536-0.329,1.172-0.467,1.796-0.369c0.207,0.032,0.396,0.066,0.512,0.093	c0.607,0.163,1.222,0.398,1.801,0.724c0.294,0.163,0.57,0.353,0.836,0.571c0.257,0.181,0.524,0.498,0.717,0.616l0.956,0.562	c0.138,0.091,0.303,0.145,0.469,0.163c0.653,0.073,1.241-0.389,1.314-1.032C49.859,46.308,49.896,45.883,49.878,45.339z"/></svg>